# File created by Blade
# Date/Time:  Tue Jan 27 18:09:18 2015
#---------------------------------------------------------
:version 1.10
:name HOM
:units
  mass 1.0
  length 1.000000
  angle deg
:documentation
     Acclaim Skeleton File
:root
   axis xyz
   order TX TY TZ RX RY RZ
   position 0.000000 0.000000 0.000000
   orientation 0 0 0
:bonedata
   begin
      id 1
      name Spine_dum
      direction 0.000000 1.000000 0.000000
      length 5.195262
      axis 0.0 0.0 0.0 xyz
   end
   begin
      id 2
      name LeftUpLeg_dum
      direction 1.000000 0.000000 0.000000
      length 3.351363
      axis 0.0 0.0 0.0 xyz
   end
   begin
      id 3
      name RightUpLeg_dum
      direction -1.000000 0.000000 0.000000
      length 3.351363
      axis 0.0 0.0 0.0 xyz
   end
   begin
      id 4
      name Spine
      direction 0.000000 1.000000 0.000000
      length 0.000000
      axis 0.0 0.0 0.0 xyz
      dof rx ry rz
   end
   begin
      id 5
      name Spine_dum1
      direction 0.000000 1.000000 0.000000
      length 15.653875
      axis 0.0 0.0 0.0 xyz
   end
   begin
      id 6
      name Spine_dum2
      direction 0.000000 1.000000 0.000000
      length 10.329768
      axis 0.0 0.0 0.0 xyz
   end
   begin
      id 7
      name Spine_dum3
      direction 0.000000 1.000000 0.000000
      length 10.329768
      axis 0.0 0.0 0.0 xyz
   end
   begin
      id 8
      name Head
      direction 0.000000 1.000000 0.000000
      length 4.527550
      axis 0.0 0.0 0.0 xyz
      dof rx ry rz
   end
   begin
      id 9
      name LeftShoulder
      direction 1.000000 0.000000 0.000000
      length 6.996006
      axis 0.0 0.0 -90.0 xyz
      dof rx ry rz
   end
   begin
      id 10
      name LeftArm
      direction 1.000000 0.000000 0.000000
      length 10.209302
      axis 0.0 0.0 -90.0 xyz
      dof rx ry rz
   end
   begin
      id 11
      name LeftForeArm
      direction 1.000000 0.000000 0.000000
      length 8.563163
      axis 0.0 0.0 -90.0 xyz
      dof ry rz rx
   end
   begin
      id 12
      name LeftHand
      direction 0.000000 0.000000 0.000000
      length 0.000000
      axis 0.0 0.0 -90.0 xyz
      dof rx ry rz
   end
   begin
      id 13
      name LeftHand_dum1
      direction 0.000000 0.000000 0.000000
      length 0.000000
      axis 0.0 0.0 -90.0 xyz
   end
   begin
      id 14
      name LeftHand_dum2
      direction 1.000000 0.000000 0.000000
      length 3.937000
      axis 0.0 0.0 -90.0 xyz
   end
   begin
      id 15
      name LeftHandThumb1
      direction 0.000000 0.000000 1.000000
      length 3.937000
      axis 0.0 0.0 -90.0 xyz
      dof rx rz ry
   end
   begin
      id 16
      name RightShoulder
      direction -1.000000 0.000000 0.000000
      length 6.996006
      axis 0.0 0.0 90.0 xyz
      dof rx ry rz
   end
   begin
      id 17
      name RightArm
      direction -1.000000 0.000000 0.000000
      length 10.209302
      axis 0.0 0.0 90.0 xyz
      dof rx ry rz
   end
   begin
      id 18
      name RightForeArm
      direction -1.000000 0.000000 0.000000
      length 8.563163
      axis 0.0 0.0 90.0 xyz
      dof ry rz rx
   end
   begin
      id 19
      name RightHand
      direction 0.000000 0.000000 0.000000
      length 0.000000
      axis 0.0 0.0 90.0 xyz
      dof rx ry rz
   end
   begin
      id 20
      name RightHand_dum1
      direction 0.000000 0.000000 0.000000
      length 0.000000
      axis 0.0 0.0 90.0 xyz
   end
   begin
      id 21
      name RightHand_dum2
      direction -1.000000 0.000000 0.000000
      length 3.937000
      axis 0.0 0.0 90.0 xyz
   end
   begin
      id 22
      name RightHandThumb1
      direction 0.000000 0.000000 1.000000
      length 3.937000
      axis 0.0 0.0 90.0 xyz
      dof rx rz ry
   end
   begin
      id 23
      name LeftUpLeg
      direction 0.000000 -1.000000 0.000000
      length 16.346831
      axis 0.0 0.0 0.0 xyz
      dof rx ry rz
   end
   begin
      id 24
      name LeftLeg
      direction 0.000000 -1.000000 0.000000
      length 13.959795
      axis 0.0 0.0 0.0 xyz
      dof rx ry rz
   end
   begin
      id 25
      name LeftFoot
      direction 0.000000 -0.258819 0.965926
      length 5.165550
      axis 15.0 0.0 0.0 xyz
      dof rx ry rz
   end
   begin
      id 26
      name LeftToeBase
      direction 0.000000 0.000000 1.000000
      length 2.952750
      axis 0.0 0.0 0.0 xyz
      dof rx ry rz
   end
   begin
      id 27
      name RightUpLeg
      direction 0.000000 -1.000000 0.000000
      length 16.346831
      axis 0.0 0.0 0.0 xyz
      dof rx ry rz
   end
   begin
      id 28
      name RightLeg
      direction 0.000000 -1.000000 0.000000
      length 13.959795
      axis 0.0 0.0 0.0 xyz
      dof rx ry rz
   end
   begin
      id 29
      name RightFoot
      direction 0.000000 -0.258819 0.965926
      length 5.165550
      axis 15.0 0.0 0.0 xyz
      dof rx ry rz
   end
   begin
      id 30
      name RightToeBase
      direction 0.000000 0.000000 1.000000
      length 2.952750
      axis 0.0 0.0 0.0 xyz
      dof rx ry rz
   end
:hierarchy
   begin
      root Spine_dum LeftUpLeg_dum RightUpLeg_dum
      Spine_dum Spine
      LeftUpLeg_dum LeftUpLeg
      RightUpLeg_dum RightUpLeg
      Spine Spine_dum1 Spine_dum2 Spine_dum3
      Spine_dum1 Head
      Spine_dum2 LeftShoulder
      Spine_dum3 RightShoulder
      LeftShoulder LeftArm
      LeftArm LeftForeArm
      LeftForeArm LeftHand
      LeftHand LeftHand_dum1 LeftHand_dum2
      LeftHand_dum1 LeftHandThumb1
      RightShoulder RightArm
      RightArm RightForeArm
      RightForeArm RightHand
      RightHand RightHand_dum1 RightHand_dum2
      RightHand_dum1 RightHandThumb1
      LeftUpLeg LeftLeg
      LeftLeg LeftFoot
      LeftFoot LeftToeBase
      RightUpLeg RightLeg
      RightLeg RightFoot
      RightFoot RightToeBase
   end

# File created by Blade
# Date/Time:  Tue Jan 27 18:09:10 2015
# Frame Rate: 120.000 fps
#------------------------------------------------------
:FULLY-SPECIFIED
:DEGREES
129
root -1.559904 31.829709 -6.553223 5.013884 14.315987 4.046168
Spine -7.050582 0.625226 -2.747196
Head -2.165307 -19.242290 4.417903
LeftShoulder -9.447030 17.684291 5.154752
LeftArm 22.012758 34.061227 -70.085594
LeftForeArm -2.102519 0.000000 15.166919
LeftHand -10.980578 -0.000000 -2.684379
LeftHandThumb1 -26.253704 0.000000 33.147579
RightShoulder 4.670838 34.417448 -30.543124
RightArm 53.050177 25.266067 111.043209
RightForeArm 13.074529 -0.000000 104.739628
RightHand -9.040112 -0.000000 1.065865
RightHandThumb1 -24.326973 -0.000000 -32.862282
LeftUpLeg -1.549822 -4.770059 -0.895564
LeftLeg 1.570117 -0.000000 -0.000000
LeftFoot -16.164903 13.602583 -24.168515
LeftToeBase 8.545476 -0.000000 -0.000000
RightUpLeg 3.443623 -7.790149 -3.711675
RightLeg -3.202970 -0.000000 0.000000
RightFoot -16.960780 -17.073273 10.552434
RightToeBase 5.309350 -0.000000 -0.000000
130
root -1.558677 31.829738 -6.543232 5.025666 14.491762 4.075146
Spine -7.029792 0.566580 -2.724614
Head -2.285964 -19.101078 4.232965
LeftShoulder -9.482386 17.674702 5.198512
LeftArm 21.842657 33.795951 -70.224370
LeftForeArm -2.289142 -0.000000 15.209245
LeftHand -10.873362 -0.000000 -2.149672
LeftHandThumb1 -26.253704 0.000000 33.147579
RightShoulder 4.555118 34.366033 -30.604448
RightArm 53.168265 25.267696 111.025465
RightForeArm 13.101921 -0.000000 104.747787
RightHand -9.074779 -0.000000 1.086130
RightHandThumb1 -24.326973 -0.000000 -32.862282
LeftUpLeg -1.568987 -4.945039 -0.908047
LeftLeg 1.605524 -0.000000 -0.000000
LeftFoot -16.170852 13.605387 -24.176979
LeftToeBase 8.576437 -0.000000 -0.000000
RightUpLeg 3.488619 -7.868760 -3.725714
RightLeg -3.199200 -0.000000 0.000000
RightFoot -17.015325 -17.146241 10.598725
RightToeBase 5.320204 -0.000000 -0.000000
131
root -1.557393 31.829648 -6.534636 5.036851 14.630062 4.105404
Spine -7.003438 0.532071 -2.701206
Head -2.430600 -18.955480 4.050713
LeftShoulder -9.535895 17.701683 5.233733
LeftArm 21.748476 33.543688 -70.357850
LeftForeArm -2.536900 0.000000 15.168283
LeftHand -10.844367 -0.000000 -1.925322
LeftHandThumb1 -26.253704 0.000000 33.147579
RightShoulder 4.443370 34.293474 -30.690156
RightArm 53.299303 25.280779 110.995133
RightForeArm 13.100712 -0.000000 104.743487
RightHand -8.899546 -0.000000 1.335330
RightHandThumb1 -24.326973 -0.000000 -32.862282
LeftUpLeg -1.579545 -5.076386 -0.922311
LeftLeg 1.625299 -0.000000 -0.000000
LeftFoot -16.158247 13.598368 -24.174226
LeftToeBase 8.520696 -0.000000 -0.000000
RightUpLeg 3.531465 -7.906442 -3.740447
RightLeg -3.210902 -0.000000 0.000000
RightFoot -17.047022 -17.257433 10.609821
RightToeBase 5.299995 -0.000000 -0.000000
132
root -1.556941 31.829188 -6.527078 5.051661 14.744723 4.115600
Spine -6.986372 0.511281 -2.657898
Head -2.562752 -18.788561 3.876991
LeftShoulder -9.576590 17.697685 5.268673
LeftArm 21.566397 33.215129 -70.575253
LeftForeArm -2.695412 0.000000 15.176085
LeftHand -10.851896 -0.000000 -1.942228
LeftHandThumb1 -26.253704 0.000000 33.147579
RightShoulder 4.322081 34.222781 -30.777546
RightArm 53.439043 25.283943 110.986417
RightForeArm 13.103749 -0.000000 104.745493
RightHand -8.910800 -0.000000 1.417143
RightHandThumb1 -24.326973 -0.000000 -32.862282
LeftUpLeg -1.594678 -5.150016 -0.918013
LeftLeg 1.643121 -0.000000 -0.000000
LeftFoot -16.159711 13.540292 -24.195560
LeftToeBase 8.574964 -0.000000 -0.000000
RightUpLeg 3.549362 -7.987713 -3.738488
RightLeg -3.200609 -0.000000 0.000000
RightFoot -17.091649 -17.269275 10.656696
RightToeBase 5.320802 -0.000000 -0.000000
133
root -1.554304 31.829260 -6.520493 5.078491 14.845945 4.145240
Spine -6.977982 0.513442 -2.632913
Head -2.686874 -18.627275 3.702263
LeftShoulder -9.603956 17.702732 5.283960
LeftArm 21.409525 32.935661 -70.757345
LeftForeArm -2.916587 -0.000000 15.173148
LeftHand -10.741435 -0.000000 -1.994395
LeftHandThumb1 -26.253704 0.000000 33.147579
RightShoulder 4.168098 34.190995 -30.863634
RightArm 53.498191 25.282436 110.876477
RightForeArm 13.167939 -0.000000 104.740489
RightHand -9.002771 -0.000000 1.372428
RightHandThumb1 -24.326973 -0.000000 -32.862282
LeftUpLeg -1.604909 -5.279391 -0.940139
LeftLeg 1.623464 -0.000000 -0.000000
LeftFoot -16.144688 13.588571 -24.189481
LeftToeBase 8.541891 -0.000000 -0.000000
RightUpLeg 3.566093 -8.045023 -3.758748
RightLeg -3.208636 -0.000000 0.000000
RightFoot -17.115066 -17.322879 10.660868
RightToeBase 5.314591 -0.000000 -0.000000
